<?xml version="1.0" standalone="no"?><!DOCTYPE svg PUBLIC "-//W3C//DTD SVG 1.1//EN" "http://www.w3.org/Graphics/SVG/1.1/DTD/svg11.dtd"><svg class="icon" width="200px" height="200.00px" viewBox="0 0 1024 1024" version="1.1" xmlns="http://www.w3.org/2000/svg"><path fill="#333333" d="M887.872 265.6 136.128 265.6C96.288 265.6 64 297.888 64 337.728l0 349.44c0 39.84 32.288 72.128 72.128 72.128l751.744 0c39.84 0 72.128-32.288 72.128-72.128l0-349.44C960 297.888 927.712 265.6 887.872 265.6L887.872 265.6zM323.04 626.016 271.584 626.016l-97.632-189.504 0 188.48L143.168 624.992l0-224.096 45.568 0 100.448 194.336 3.04 0 0-195.36 30.784 0L323.008 626.016 323.04 626.016zM527.072 496.672l0 30.784-125.344 0.064c0.032 2.304 0.064 4.416 0.064 6.368l0 0.16c0.128 39.52 12.672 59.552 37.28 59.552l88 0 0 30.784-88 0c-19.392 0-35.904-7.296-47.776-21.12-13.344-15.552-20.16-38.784-20.288-69.056-0.16-11.584-0.256-29.12-0.256-53.6 0-50.944 35.392-75.072 68.512-80.672l1.44-0.224c13.728-1.376 79.168-0.448 86.592-0.352l-0.448 30.784c-27.936-0.416-72.48-0.704-82.56 0.16-12.96 2.208-42.752 11.552-42.752 50.304 0 5.76 0 11.104 0 16.096L527.072 496.672 527.072 496.672zM815.872 626.016l-45.76 0-45.696-180.224-50.88 180.224-47.104 0L560.768 400l33.568 0 58.048 184.992 1.92-1.024 51.2-184.608 38.848 0 49.312 194.368 60.192-193.792 32.416 0L815.872 626.016 815.872 626.016zM815.872 626.016" /></svg>